<svg id="visual" viewBox="0 0 675 900" width="675" height="900" xmlns="http://www.w3.org/2000/svg" xmlns:xlink="http://www.w3.org/1999/xlink" version="1.1"><rect x="0" y="0" width="675" height="900" fill="#FFF3F2"></rect><defs><linearGradient id="grad1_0" x1="0%" y1="0%" x2="100%" y2="100%"><stop offset="30%" stop-color="#ff5e31" stop-opacity="1"></stop><stop offset="70%" stop-color="#ff5e31" stop-opacity="1"></stop></linearGradient></defs><defs><linearGradient id="grad1_1" x1="0%" y1="0%" x2="100%" y2="100%"><stop offset="30%" stop-color="#ff5e31" stop-opacity="1"></stop><stop offset="70%" stop-color="#ff9077" stop-opacity="1"></stop></linearGradient></defs><defs><linearGradient id="grad1_2" x1="0%" y1="0%" x2="100%" y2="100%"><stop offset="30%" stop-color="#ffc2b7" stop-opacity="1"></stop><stop offset="70%" stop-color="#ff9077" stop-opacity="1"></stop></linearGradient></defs><defs><linearGradient id="grad1_3" x1="0%" y1="0%" x2="100%" y2="100%"><stop offset="30%" stop-color="#ffc2b7" stop-opacity="1"></stop><stop offset="70%" stop-color="#fff3f2" stop-opacity="1"></stop></linearGradient></defs><defs><linearGradient id="grad2_0" x1="0%" y1="0%" x2="100%" y2="100%"><stop offset="30%" stop-color="#ff5e31" stop-opacity="1"></stop><stop offset="70%" stop-color="#ff5e31" stop-opacity="1"></stop></linearGradient></defs><defs><linearGradient id="grad2_1" x1="0%" y1="0%" x2="100%" y2="100%"><stop offset="30%" stop-color="#ff9077" stop-opacity="1"></stop><stop offset="70%" stop-color="#ff5e31" stop-opacity="1"></stop></linearGradient></defs><defs><linearGradient id="grad2_2" x1="0%" y1="0%" x2="100%" y2="100%"><stop offset="30%" stop-color="#ff9077" stop-opacity="1"></stop><stop offset="70%" stop-color="#ffc2b7" stop-opacity="1"></stop></linearGradient></defs><defs><linearGradient id="grad2_3" x1="0%" y1="0%" x2="100%" y2="100%"><stop offset="30%" stop-color="#fff3f2" stop-opacity="1"></stop><stop offset="70%" stop-color="#ffc2b7" stop-opacity="1"></stop></linearGradient></defs><g transform="translate(675, 0)"><path d="M0 285C-24.2 268.9 -48.4 252.8 -81.6 251.1C-114.8 249.3 -156.9 261.9 -180.5 248.4C-204 234.9 -209 195.3 -229.8 166.9C-250.6 138.6 -287.2 121.5 -294.2 95.6C-301.2 69.7 -278.6 34.8 -256 0L0 0Z" fill="#ffdad5"></path><path d="M0 213.8C-18.2 201.7 -36.3 189.6 -61.2 188.3C-86.1 187 -117.7 196.4 -135.3 186.3C-153 176.1 -156.7 146.4 -172.3 125.2C-187.9 104 -215.4 91.2 -220.7 71.7C-225.9 52.2 -209 26.1 -192 0L0 0Z" fill="#ffa998"></path><path d="M0 142.5C-12.1 134.5 -24.2 126.4 -40.8 125.5C-57.4 124.7 -78.4 130.9 -90.2 124.2C-102 117.4 -104.5 97.6 -114.9 83.5C-125.3 69.3 -143.6 60.8 -147.1 47.8C-150.6 34.8 -139.3 17.4 -128 0L0 0Z" fill="#ff7855"></path><path d="M0 71.3C-6.1 67.2 -12.1 63.2 -20.4 62.8C-28.7 62.3 -39.2 65.5 -45.1 62.1C-51 58.7 -52.2 48.8 -57.4 41.7C-62.6 34.7 -71.8 30.4 -73.6 23.9C-75.3 17.4 -69.7 8.7 -64 0L0 0Z" fill="#ff5e31"></path></g><g transform="translate(0, 900)"><path d="M0 -249C22 -239.7 44 -230.3 76.3 -234.9C108.6 -239.5 151.2 -258 181.8 -250.3C212.5 -242.6 231.1 -208.5 244.3 -177.5C257.6 -146.5 265.5 -118.4 274.9 -89.3C284.2 -60.2 295.1 -30.1 306 0L0 0Z" fill="#ffdad5"></path><path d="M0 -186.7C16.5 -179.7 33 -172.7 57.2 -176.2C81.5 -179.6 113.4 -193.5 136.4 -187.7C159.3 -181.9 173.3 -156.4 183.2 -133.1C193.2 -109.9 199.1 -88.8 206.1 -67C213.2 -45.2 221.3 -22.6 229.5 0L0 0Z" fill="#ffa998"></path><path d="M0 -124.5C11 -119.8 22 -115.2 38.2 -117.5C54.3 -119.8 75.6 -129 90.9 -125.1C106.2 -121.3 115.5 -104.3 122.2 -88.8C128.8 -73.2 132.7 -59.2 137.4 -44.7C142.1 -30.1 147.6 -15.1 153 0L0 0Z" fill="#ff7855"></path><path d="M0 -62.2C5.5 -59.9 11 -57.6 19.1 -58.7C27.2 -59.9 37.8 -64.5 45.5 -62.6C53.1 -60.6 57.8 -52.1 61.1 -44.4C64.4 -36.6 66.4 -29.6 68.7 -22.3C71.1 -15.1 73.8 -7.5 76.5 0L0 0Z" fill="#ff5e31"></path></g></svg>